<svg t="1617804507921" class="icon" viewBox="0 0 1024 1024" version="1.1" xmlns="http://www.w3.org/2000/svg" p-id="4586" width="48" height="48"><path d="M747.10016 472.71936l0.7168 0.19456a10.25024 10.25024 0 0 1 1.42336 0.54272l0.1024 0.04096a10.14784 10.14784 0 0 1 1.536 0.9216l0.36864 0.28672a7.7312 7.7312 0 0 1 1.04448 0.95232l0.19456 0.2048 0.48128 0.58368 0.14336 0.2048 74.3424 100.9664a10.24 10.24 0 0 1-15.6672 13.11744l-0.82944-0.98304-54.04672-73.4208A245.8112 245.8112 0 0 1 337.36704 685.7728a10.24 10.24 0 0 1 14.47936-14.47936 225.30048 225.30048 0 0 0 384.48128-167.13728l-74.11712 66.65216a10.24 10.24 0 0 1-13.54752 0.13312l-0.9216-0.90112a10.24 10.24 0 0 1-0.13312-13.54752l0.90112-0.9216 89.50784-80.4864 0.12288-0.1024a10.24 10.24 0 0 1 0.59392-0.48128l-0.7168 0.58368a10.36288 10.36288 0 0 1 5.5296-2.53952h0.0512a10.21952 10.21952 0 0 1 3.50208 0.16384zM511.13984 266.24a245.08416 245.08416 0 0 1 173.7728 71.94624 10.24 10.24 0 1 1-14.4896 14.45888A224.6144 224.6144 0 0 0 511.15008 286.72a225.36192 225.36192 0 0 0-225.21856 231.15776l76.06272-64.8704a10.24 10.24 0 0 1 13.54752 0.22528l0.89088 0.9216a10.24 10.24 0 0 1-0.22528 13.54752l-0.9216 0.89088-91.1872 77.75232a10.19904 10.19904 0 0 1-11.4688 1.66912l-0.23552-0.12288a9.8304 9.8304 0 0 1-1.7408-1.14688l-0.19456-0.16384a8.92928 8.92928 0 0 1-0.72704-0.68608l-0.04096-0.0512-0.1024-0.1024a10.25024 10.25024 0 0 1-0.60416-0.7168l-0.09216-0.14336-72.3456-98.49856a10.24 10.24 0 0 1 15.67744-13.1072l0.82944 0.98304 52.40832 71.39328A245.85216 245.85216 0 0 1 511.13984 266.24z" p-id="4587" fill="#999999"></path></svg>