<svg t="1619959896322" class="icon" viewBox="0 0 1024 1024" version="1.1" xmlns="http://www.w3.org/2000/svg" p-id="2180" width="28" height="28"><path d="M 280.389 878.439 a 37.466 37.466 0 0 1 -19.043 -5.182 c -11.646 -6.848 -18.677 -19.445 -18.457 -32.959 l 1.245 -74.047 C 137.915 704.307 72.885 597.74 72.885 483.06 c 0 -186.09 168.229 -337.5 375.009 -337.5 c 206.763 0 375.001 151.41 375.001 337.5 s -168.238 337.5 -375.001 337.5 c -16.662 0 -33.544 -1.117 -51.306 -3.406 l -97.449 56.27 a 37.557 37.557 0 0 1 -18.75 5.015 Z M 447.894 220.56 c -165.417 0 -300.009 117.755 -300.009 262.5 c 0 93.53 57.853 180.745 150.998 227.583 a 37.492 37.492 0 0 1 20.618 34.148 l -0.513 30.561 l 51.306 -29.627 c 7.434 -4.266 16.15 -5.895 24.573 -4.559 c 18.86 2.947 36.2 4.395 53.027 4.395 c 165.418 0 300.001 -117.756 300.001 -262.5 S 613.312 220.56 447.894 220.56 Z M 815.479 878.439 a 37.443 37.443 0 0 1 -22.688 -7.635 l -77.966 -59.217 c -16.498 -12.523 -19.702 -36.053 -7.178 -52.551 c 12.524 -16.461 36.035 -19.703 52.533 -7.178 l 19.519 14.832 l 0.22 -9.375 a 37.495 37.495 0 0 1 21.405 -32.996 c 77.563 -36.859 93.823 -109.863 93.823 -164.631 c 0 -37.133 -12.506 -73.077 -36.182 -103.912 c -12.598 -16.425 -9.521 -39.972 6.921 -52.57 c 16.406 -12.634 39.954 -9.503 52.57 6.903 c 33.819 44.056 51.69 95.783 51.69 149.579 c 0 99.115 -40.888 176.789 -115.759 221.266 l -1.429 60.863 a 37.522 37.522 0 0 1 -21.204 32.904 a 37.52 37.52 0 0 1 -16.275 3.718 Z" p-id="2181" fill="#ffffff"></path><path d="M 280.389 445.56 c 20.691 0 37.5 16.791 37.5 37.5 s -16.809 37.5 -37.5 37.5 c -20.728 0 -37.5 -16.791 -37.5 -37.5 s 16.773 -37.5 37.5 -37.5 Z M 443.262 445.56 c 20.709 0 37.5 16.791 37.5 37.5 s -16.791 37.5 -37.5 37.5 s -37.5 -16.791 -37.5 -37.5 s 16.79 -37.5 37.5 -37.5 Z M 606.134 445.56 c 20.709 0 37.5 16.791 37.5 37.5 s -16.791 37.5 -37.5 37.5 s -37.5 -16.791 -37.5 -37.5 s 16.791 -37.5 37.5 -37.5 Z" p-id="2182" fill="#ffffff"></path></svg>