<svg t="1617807316018" class="icon" viewBox="0 0 1024 1024" version="1.1" xmlns="http://www.w3.org/2000/svg" p-id="14378" width="200" height="200"><path d="M909.585 869.050l-179.374-179.374c54.492-64.080 84.105-144.421 84.105-229.376 0-94.785-36.895-183.865-103.887-250.858-66.992-66.992-156.073-103.887-250.858-103.887s-183.865 36.895-250.858 103.887c-66.992 66.992-103.887 156.073-103.887 250.858s36.895 183.865 103.887 250.858c66.992 66.992 156.073 103.887 250.858 103.887 84.955 0 165.418-29.733 229.376-84.105l179.374 179.374c5.703 5.703 13.107 8.496 20.631 8.496s14.928-2.791 20.631-8.496c11.408-11.408 11.408-29.855 0-41.264zM249.978 670.015c-115.659-115.659-115.659-303.772 0-419.309 55.948-55.948 130.465-86.896 209.715-86.896 79.25 0 153.646 30.826 209.715 86.896 115.659 115.659 115.659 303.772 0 419.309-115.78 115.538-303.892 115.538-419.43 0z" fill="#333333" p-id="14379"></path></svg>