<svg t="1615965419664" class="icon" viewBox="0 0 1024 1024" version="1.1" xmlns="http://www.w3.org/2000/svg" p-id="6136" width="64" height="64"><path d="M774.9376 956.53888c-68.9408 0-124.96384-56.02816-124.96384-124.96896 0-4.85888 0.2304-9.71776 0.80896-14.46912L434.70848 817.1008c-2.83648 1.44896-5.9648 2.2016-9.3184 2.2016L357.02784 819.3024c-0.2304 0-0.4608 0-0.63488 0-7.12192 62.2848-60.0832 110.78656-124.21632 110.78656-64.13824 0-117.15584-48.50176-124.27776-110.78656L39.54176 819.3024c-11.45856 0-20.72064-9.26208-20.72064-20.72576L18.82112 476.40576c0-3.82464 1.04448-7.58272 3.01056-10.82368l110.848-181.05856c26.1632-41.4464 64.82944-62.2848 115.01056-62.2848l157.44 0c3.5328-76.11392 66.50368-136.95488 143.49312-136.95488l307.23584 0c79.1808 0 143.61088 64.42496 143.61088 143.60576l0 475.26912c0 58.06592-43.99104 106.04544-100.4288 112.30208 0.57856 4.92032 0.8704 10.0096 0.8704 15.104C899.91168 900.51072 843.8784 956.53888 774.9376 956.53888L774.9376 956.53888zM774.9376 748.05248c-46.01344 0-83.52256 37.504-83.52256 83.52256 0 46.00832 37.504 83.52256 83.52256 83.52256 46.01856 0 83.52256-37.50912 83.52256-83.52256C858.46528 785.55648 820.96128 748.05248 774.9376 748.05248L774.9376 748.05248zM232.17664 721.536c-46.07488 0-83.584 37.50912-83.584 83.584 0 46.01344 37.50912 83.52256 83.584 83.52256 46.01344 0 83.52256-37.50912 83.52256-83.52256C315.6992 759.04512 278.19008 721.536 232.17664 721.536L232.17664 721.536zM232.17664 680.09472c59.6224 0 109.62944 41.9584 122.01472 97.94048 0.92672-0.11776 1.85344-0.17408 2.83648-0.17408l47.6416 0 0.29184-514.17088L247.68512 263.69024c-36.00384 0-61.35296 13.59872-79.75936 42.71616L60.2624 482.2528l0 295.6032 49.83808 0C122.60352 721.93536 172.61056 680.09472 232.17664 680.09472L232.17664 680.09472zM446.45888 775.65952l216.71424 0c20.55168-40.92416 62.91968-69.05856 111.7696-69.05856 48.85504 0 91.22304 28.1344 111.77472 69.05856 39.30112-0.06144 71.31136-32.128 71.31136-71.49056L958.0288 228.89472c0-56.32-45.8496-102.15936-102.16448-102.15936l-307.24096 0c-56.32 0-102.16448 45.83936-102.16448 102.15936L446.45888 775.65952 446.45888 775.65952 446.45888 775.65952zM277.66784 501.81632 145.408 501.81632c-11.45856 0-20.72064-9.26208-20.72064-20.72576 0-11.45856 9.26208-20.72064 20.72064-20.72064l111.5392 0L256.9472 348.83072c0-11.46368 9.26208-20.72064 20.72064-20.72064s20.72064 9.25696 20.72064 20.72064l0 132.25984C298.3936 492.55424 289.13152 501.81632 277.66784 501.81632L277.66784 501.81632z" p-id="6137" fill="#f53b57"></path></svg>