<svg t="1617804924282" class="icon" viewBox="0 0 1024 1024" version="1.1" xmlns="http://www.w3.org/2000/svg" p-id="12025" data-spm-anchor-id="a313x.7781069.0.i24" width="38" height="38"><path d="M859.84 372.96c-10.891-37.802-57.888-56.172-139.668-54.646-2.488 0.047-5.168 0.242-7.704 0.322-49.106-48.447-116.485-78.417-190.754-78.417-128.797 0-236.874 90.081-264.735 210.531-1.172 0.694-2.469 1.377-3.623 2.071-70.064 42.21-100.07 82.78-89.178 120.573 9.576 33.243 47.146 51.414 111.667 54.281 43.536 92.164 137.358 156.107 245.869 156.107 149.863 0 271.781-121.919 271.781-271.781 0-10.768-0.7-21.37-1.924-31.816 48.524-33.007 79.032-69.868 68.269-107.225z m-338.126-74.503c38.565 0 74.741 10.33 106.002 28.285a215.09 215.09 0 0 1 60.347 51.575c17.274 21.453 30.476 46.293 38.462 73.363-46.267 25.821-112.672 54.623-197.895 79.18-86.735 24.996-159.413 35.942-212.583 38.451-5.094-18.252-7.876-37.459-7.876-57.312 0-8.071 0.492-16.027 1.367-23.866a211.85 211.85 0 0 1 23.528-76.052c35.912-67.525 106.983-113.624 188.648-113.624zM220.52 557.165c1.656-7.311 11.773-18.669 29.738-32.288a271.165 271.165 0 0 0 5.498 43.089c-18.448-2.189-30.52-6.076-35.236-10.801z m301.194 168.378c-75.854 0-142.549-39.788-180.441-99.558 60.478-4.856 131.13-18.316 203.481-39.16 56.619-16.313 129.09-42.179 190.473-73.64-0.645 117.203-96.162 212.358-213.513 212.358z m255.337-306.679c-5.289-14.455-11.835-28.299-19.393-41.494 24.491 1.82 40.273 6.237 45.839 11.818-1.549 6.83-10.632 17.237-26.446 29.676z" p-id="12026" fill="#ff5777"></path><path d="M619.901 439.742l52.108-26.032c-22.321-37.76-58.398-66.372-101.285-78.972l-18.441 55.199c28.224 7.694 52.228 25.728 67.618 49.805z" p-id="12027" fill="#ff5777"></path></svg>