<svg t="1609335475512" class="icon" viewBox="0 0 1024 1024" version="1.1" xmlns="http://www.w3.org/2000/svg" p-id="1731" width="200" height="200"><path d="M848 160H624v400a111.984 111.984 0 0 0 112 112 112 112 0 0 0 112-112V160z" fill="#FFFFFF" p-id="1732"></path><path d="M441.504 437.664c-61.728-109.952-62.816-187.728-62.816-188.464V109.232a14 14 0 0 0 9.232-13.152v-66.08A13.984 13.984 0 0 0 373.968 16h-108.624a13.968 13.968 0 0 0-13.936 14v66.08c0 6.064 3.84 11.216 9.216 13.152v139.936c0 0.768-1.072 78.544-62.816 188.496-39.248 69.904-38.224 169.28-38.128 175.152l-0.016 342.24A52.896 52.896 0 0 0 212.416 1008h214.48a52.912 52.912 0 0 0 52.768-52.944L479.632 612.8c0.096-5.952 1.088-105.264-38.128-175.136z" fill="#FFFFFF" p-id="1733"></path><path d="M373.968 25.008c8.416 0.752 13.952 6.72 13.952 14v66.08c0 6.064-3.856 11.2-9.232 13.152v139.968c0 0.736 1.088 78.512 62.816 188.464 39.216 69.872 38.224 169.184 38.128 175.136l0.032 342.256c0 28.784-23.008 52.272-52.768 52.944H244.416a52.896 52.896 0 0 1-52.752-52.944l0.016-342.24c-0.096-5.872-1.12-105.248 38.128-175.152 61.744-109.952 62.816-187.728 62.816-188.496V118.24a13.968 13.968 0 0 1-9.216-13.152v-66.08c0-7.28 5.52-13.248 13.936-14h76.624z" fill="#5AB947" p-id="1734"></path><path d="M160 960V592h320v368" fill="#CCA733" p-id="1735"></path><path d="M176 720h288v112H176z" fill="#FFE183" p-id="1736"></path><path d="M378.688 112h-86.064v-2.768a13.968 13.968 0 0 1-9.216-13.152v-66.08c0-6.848 4.88-12.544 13.936-14h76.624l10.032 4.512v84.688l-5.312 4.032V112z" fill="#CCA733" p-id="1737"></path><path d="M848 160H656v416c0 25.456 10.112 49.872 28.112 67.888a96.048 96.048 0 0 0 135.776 0A96.048 96.048 0 0 0 848 576V160z" fill="#CBE9EA" p-id="1738"></path><path d="M848 368H656v208a96 96 0 1 0 192 0V368z" fill="#FFD140" p-id="1739"></path><path d="M292.624 112h86.064v61.184l-1.216 13.984a543.072 543.072 0 0 0 1.216 56.864v5.168c0 0.288 0.176 12.64 4.672 33.664A439.888 439.888 0 0 0 416 400l-96 80-78.352-65.296c50.048-97.584 50.976-164.816 50.976-165.536V112z" fill="#FFE183" p-id="1740"></path><path d="M736 896l-144 112h288l-144-112" fill="#CBE9EA" p-id="1741"></path></svg>